<svg width="42" height="42" viewBox="0 0 42 42" fill="none" xmlns="http://www.w3.org/2000/svg">
<path d="M20.4112 25.5837C20.2295 25.5163 20.0567 25.4008 19.8928 25.2372L12.0278 17.3723C11.7857 17.1299 11.6618 16.8253 11.6559 16.4583C11.6504 16.0917 11.7744 15.7815 12.0278 15.5278C12.2816 15.2743 12.589 15.1476 12.9501 15.1476C13.3111 15.1476 13.6186 15.2743 13.8723 15.5278L21.0001 22.656L28.1278 15.5278C28.3702 15.2857 28.6748 15.1617 29.0418 15.1559C29.4084 15.1504 29.7186 15.2743 29.9723 15.5278C30.2258 15.7815 30.3525 16.0889 30.3525 16.45C30.3525 16.8111 30.2258 17.1185 29.9723 17.3723L22.1074 25.2372C21.9435 25.4008 21.7706 25.5163 21.5889 25.5837C21.4072 25.6511 21.2109 25.6848 21.0001 25.6848C20.7892 25.6848 20.5929 25.6511 20.4112 25.5837Z" fill="#ADB5BD"/>
</svg>
