<svg width="64" height="64" viewBox="0 0 64 64" fill="none" xmlns="http://www.w3.org/2000/svg">
<path d="M0 12C0 5.37258 5.37258 0 12 0H52C58.6274 0 64 5.37258 64 12V52C64 58.6274 58.6274 64 52 64H12C5.37258 64 0 58.6274 0 52V12Z" fill="black"/>
<path d="M18.5835 45.4167C18.5835 41.7118 21.587 38.7084 25.2918 38.7084H32.0002V45.4167C32.0002 49.1216 28.9967 52.125 25.2918 52.125C21.587 52.125 18.5835 49.1216 18.5835 45.4167Z" fill="#24CB71"/>
<path d="M32.0005 11.875V25.2917H38.7088C42.4137 25.2917 45.4172 22.2882 45.4172 18.5833C45.4172 14.8785 42.4137 11.875 38.7088 11.875H32.0005Z" fill="#FF7237"/>
<path d="M38.6527 38.7083C42.3576 38.7083 45.361 35.7049 45.361 32C45.361 28.295 42.3576 25.2916 38.6527 25.2916C34.9478 25.2916 31.9443 28.295 31.9443 32C31.9443 35.7049 34.9478 38.7083 38.6527 38.7083Z" fill="#00B6FF"/>
<path d="M18.5835 18.5833C18.5835 22.2882 21.587 25.2917 25.2918 25.2917H32.0002V11.875H25.2918C21.587 11.875 18.5835 14.8785 18.5835 18.5833Z" fill="#FF3737"/>
<path d="M18.5835 32C18.5835 35.7048 21.587 38.7083 25.2918 38.7083H32.0002V25.2916H25.2918C21.587 25.2916 18.5835 28.2951 18.5835 32Z" fill="#874FFF"/>
</svg>
